<svg width="255" height="237" viewBox="0 0 255 237" fill="none" xmlns="http://www.w3.org/2000/svg">
<path d="M239.908 3L142.545 75.2287L160.65 32.6619L239.908 3Z" fill="#E17726" stroke="#E17726" stroke-width="4.93752" stroke-linecap="round" stroke-linejoin="round"/>
<path d="M15.3272 3.00195L111.824 75.9048L94.5855 32.6639L15.3272 3.00195Z" fill="#E27625" stroke="#E27625" stroke-width="4.93752" stroke-linecap="round" stroke-linejoin="round"/>
<path d="M204.854 170.477L178.948 210.154L234.419 225.467L250.309 171.343L204.854 170.477Z" fill="#E27625" stroke="#E27625" stroke-width="4.93752" stroke-linecap="round" stroke-linejoin="round"/>
<path d="M5.02261 171.343L20.8165 225.467L76.1914 210.154L50.3819 170.477L5.02261 171.343Z" fill="#E27625" stroke="#E27625" stroke-width="4.93752" stroke-linecap="round" stroke-linejoin="round"/>
<path d="M73.2058 103.449L57.7972 126.754L112.691 129.258L110.861 70.0308L73.2058 103.449Z" fill="#E27625" stroke="#E27625" stroke-width="4.93752" stroke-linecap="round" stroke-linejoin="round"/>
<path d="M182.03 103.447L143.797 69.3555L142.545 129.257L197.438 126.753L182.03 103.447Z" fill="#E27625" stroke="#E27625" stroke-width="4.93752" stroke-linecap="round" stroke-linejoin="round"/>
<path d="M76.1915 210.154L109.416 194.071L80.8141 171.728L76.1915 210.154Z" fill="#E27625" stroke="#E27625" stroke-width="4.93752" stroke-linecap="round" stroke-linejoin="round"/>
<path d="M145.819 194.071L178.948 210.154L174.422 171.728L145.819 194.071Z" fill="#E27625" stroke="#E27625" stroke-width="4.93752" stroke-linecap="round" stroke-linejoin="round"/>
<path d="M178.948 210.151L145.819 194.068L148.516 215.641L148.227 224.79L178.948 210.151Z" fill="#D5BFB2" stroke="#D5BFB2" stroke-width="4.93752" stroke-linecap="round" stroke-linejoin="round"/>
<path d="M76.1912 210.152L107.009 224.79L106.816 215.641L109.416 194.069L76.1912 210.152Z" fill="#D5BFB2" stroke="#D5BFB2" stroke-width="4.93752" stroke-linecap="round" stroke-linejoin="round"/>
<path d="M107.586 157.473L80.0434 149.384L99.4968 140.427L107.586 157.473Z" fill="#233447" stroke="#233447" stroke-width="4.93752" stroke-linecap="round" stroke-linejoin="round"/>
<path d="M147.649 157.473L155.738 140.427L175.288 149.384L147.649 157.473Z" fill="#233447" stroke="#233447" stroke-width="4.93752" stroke-linecap="round" stroke-linejoin="round"/>
<path d="M76.1914 210.152L81.0066 170.474L50.3818 171.341L76.1914 210.152Z" fill="#CC6228" stroke="#CC6228" stroke-width="4.93752" stroke-linecap="round" stroke-linejoin="round"/>
<path d="M174.229 170.474L178.948 210.152L204.854 171.341L174.229 170.474Z" fill="#CC6228" stroke="#CC6228" stroke-width="4.93752" stroke-linecap="round" stroke-linejoin="round"/>
<path d="M197.438 126.753L142.545 129.257L147.649 157.474L155.739 140.428L175.288 149.385L197.438 126.753Z" fill="#CC6228" stroke="#CC6228" stroke-width="4.93752" stroke-linecap="round" stroke-linejoin="round"/>
<path d="M80.0433 149.385L99.4967 140.428L107.586 157.474L112.69 129.257L57.797 126.753L80.0433 149.385Z" fill="#CC6228" stroke="#CC6228" stroke-width="4.93752" stroke-linecap="round" stroke-linejoin="round"/>
<path d="M57.7969 126.751L80.8136 171.725L80.0432 149.383L57.7969 126.751Z" fill="#E27525" stroke="#E27525" stroke-width="4.93752" stroke-linecap="round" stroke-linejoin="round"/>
<path d="M175.288 149.385L174.422 171.727L197.438 126.753L175.288 149.385Z" fill="#E27525" stroke="#E27525" stroke-width="4.93752" stroke-linecap="round" stroke-linejoin="round"/>
<path d="M112.691 129.258L107.587 157.475L114.039 190.797L115.483 146.882L112.691 129.258Z" fill="#E27525" stroke="#E27525" stroke-width="4.93752" stroke-linecap="round" stroke-linejoin="round"/>
<path d="M142.545 129.258L139.848 146.785L141.197 190.797L147.649 157.475L142.545 129.258Z" fill="#E27525" stroke="#E27525" stroke-width="4.93752" stroke-linecap="round" stroke-linejoin="round"/>
<path d="M147.649 157.472L141.196 190.794L145.819 194.068L174.421 171.726L175.288 149.383L147.649 157.472Z" fill="#F5841F" stroke="#F5841F" stroke-width="4.93752" stroke-linecap="round" stroke-linejoin="round"/>
<path d="M80.0434 149.383L80.8138 171.726L109.416 194.068L114.039 190.794L107.586 157.472L80.0434 149.383Z" fill="#F5841F" stroke="#F5841F" stroke-width="4.93752" stroke-linecap="round" stroke-linejoin="round"/>
<path d="M148.227 224.791L148.516 215.642L146.012 213.524H109.224L106.816 215.642L107.009 224.791L76.1912 210.153L86.9773 219.013L108.838 234.133H146.301L168.258 219.013L178.948 210.153L148.227 224.791Z" fill="#C0AC9D" stroke="#C0AC9D" stroke-width="4.93752" stroke-linecap="round" stroke-linejoin="round"/>
<path d="M145.819 194.068L141.196 190.793H114.039L109.416 194.068L106.816 215.64L109.223 213.521H146.012L148.516 215.64L145.819 194.068Z" fill="#161616" stroke="#161616" stroke-width="4.93752" stroke-linecap="round" stroke-linejoin="round"/>
<path d="M244.049 79.9496L252.235 40.0793L239.908 3.00195L145.819 72.823L182.029 103.448L233.167 118.375L244.435 105.181L239.523 101.618L247.324 94.4916L241.353 89.869L249.153 83.8981L244.049 79.9496Z" fill="#763E1A" stroke="#763E1A" stroke-width="4.93752" stroke-linecap="round" stroke-linejoin="round"/>
<path d="M3 40.0774L11.2822 79.9476L5.98543 83.8961L13.8824 89.867L7.91151 94.4897L15.7121 101.616L10.8006 105.18L22.0682 118.373L73.2057 103.446L109.416 72.8211L15.3269 3L3 40.0774Z" fill="#763E1A" stroke="#763E1A" stroke-width="4.93752" stroke-linecap="round" stroke-linejoin="round"/>
<path d="M233.167 118.373L182.029 103.446L197.438 126.752L174.421 171.726L204.854 171.341H250.309L233.167 118.373Z" fill="#F5841F" stroke="#F5841F" stroke-width="4.93752" stroke-linecap="round" stroke-linejoin="round"/>
<path d="M73.2057 103.446L22.0682 118.373L5.02234 171.341H50.3816L80.8137 171.726L57.797 126.752L73.2057 103.446Z" fill="#F5841F" stroke="#F5841F" stroke-width="4.93752" stroke-linecap="round" stroke-linejoin="round"/>
<path d="M142.545 129.255L145.819 72.8203L160.65 32.6611H94.5852L109.416 72.8203L112.69 129.255L113.942 146.975L114.039 190.794H141.196L141.293 146.975L142.545 129.255Z" fill="#F5841F" stroke="#F5841F" stroke-width="4.93752" stroke-linecap="round" stroke-linejoin="round"/>
</svg>
