<svg width="328" height="362" viewBox="0 0 328 362" fill="none" xmlns="http://www.w3.org/2000/svg">
<path d="M0.20466 128.7C0.20466 119.7 0.40466 110.7 0.10466 101.7C0.00466039 98.4001 1.20466 96.7001 3.90466 95.0001C48.3047 68.4001 92.7047 41.8001 137.005 15.0001C144.605 10.4001 152.205 5.70009 159.905 1.30009C162.705 -0.299911 164.805 -0.299911 167.505 1.40009C211.405 27.9001 255.305 54.3001 299.305 80.8001C307.405 85.7001 315.505 90.6001 323.705 95.4001C326.205 96.8001 327.105 98.5001 327.105 101.4C327.005 120.1 327.005 138.7 327.105 157.4C327.105 160.7 326.405 162.2 322.705 162C317.205 161.7 311.705 161.7 306.205 162C302.905 162.1 301.905 161 302.005 157.7C302.205 143.7 302.005 129.7 302.105 115.7C302.105 112.6 301.105 110.9 298.505 109.4C254.805 83.2001 211.205 57.0001 167.605 30.6001C164.605 28.8001 162.505 28.9001 159.505 30.7001C116.205 56.9001 72.8047 82.9001 29.4047 108.9C26.1047 110.8 24.9047 112.8 24.9047 116.7C25.2047 130.4 24.9047 144 25.1047 157.7C25.1047 161 24.2047 162.1 20.9047 161.9C15.7047 161.7 10.6047 161.6 5.40466 161.9C1.40466 162.2 -0.0953396 161 0.00466039 156.7C0.40466 147.3 0.20466 138 0.20466 128.7Z" fill="#323232"/>
<path d="M327.105 232.5C327.105 241.3 326.905 250.2 327.205 259C327.305 262.9 325.905 264.9 322.605 266.8C302.005 279 281.505 291.4 260.905 303.8C230.005 322.4 199.105 340.9 168.305 359.6C164.805 361.7 162.405 361.6 159.005 359.5C107.405 328.4 55.7046 297.4 4.10457 266.5C1.40457 264.9 0.104566 263.2 0.204566 259.8C0.404566 241.5 0.404566 223.2 0.104566 204.8C0.0045658 200.5 1.40457 199.3 5.50457 199.6C10.6046 199.9 15.8046 199.9 21.0046 199.6C24.3046 199.4 25.3046 200.6 25.3046 203.9C25.1046 217.7 25.3046 231.5 25.1046 245.4C25.1046 248.6 26.0046 250.5 28.8046 252.1C63.4046 272.7 97.9046 293.4 132.405 314.1C141.705 319.7 151.005 325.2 160.205 331C162.805 332.7 164.805 332.5 167.405 330.9C211.205 304.4 255.105 278.1 299.005 251.8C301.505 250.3 302.205 248.6 302.205 245.8C302.105 232.3 302.405 218.8 302.005 205.3C301.905 200.5 303.505 199.3 307.905 199.6C312.905 200 317.905 199.9 322.905 199.6C326.305 199.4 327.205 200.7 327.105 203.9C327.005 213.5 327.105 223 327.105 232.5Z" fill="#323232"/>
<path d="M40.1045 203.796C40.1045 195.539 40.1045 148.034 40.1045 139.777C40.1045 134.009 40.7846 133.669 46.339 136.949C70.2569 151.201 94.2881 165.566 118.206 179.817C131.695 187.848 145.184 195.765 158.447 204.022C162.641 206.624 165.702 206.284 169.669 203.796C206.283 181.74 243.123 159.797 279.85 137.741C280.983 137.062 282.117 136.384 283.25 135.818C285.858 134.348 287.104 135.027 287.104 138.08C287.104 155.725 287.104 212.618 287.104 230.263C287.104 232.186 286.538 233.769 284.611 234.9C245.617 258.2 206.623 281.388 167.629 304.801C164.341 306.724 162.074 306.158 159.014 304.349C128.861 286.138 98.4822 268.267 68.3298 250.057C59.9416 245.08 51.8934 239.651 43.1651 235.24C40.6713 233.995 40.2178 231.62 40.2178 229.019C40.2178 220.762 40.1045 212.279 40.1045 203.796Z" fill="url(#paint0_linear_514_465)"/>
<path d="M239.104 120.782C238.343 122.94 236.311 123.447 234.66 124.463C212.565 137.79 190.47 150.863 168.374 164.317C164.819 166.475 162.152 166.601 158.597 164.444C135.993 150.736 113.39 137.282 90.787 123.701C89.7712 123.067 88.7553 122.305 87.1045 121.036C98.4061 114.182 109.2 107.709 119.993 101.236C133.073 93.3664 146.152 85.6241 159.104 77.6279C161.771 75.9778 164.057 75.2163 167.104 77.1202C190.343 91.3356 213.708 105.297 237.073 119.259C237.962 119.64 238.47 120.274 239.104 120.782Z" fill="#323232"/>
<path d="M45.9894 120.752C56.9282 114.19 67.2683 107.987 77.7305 101.784L77.7347 101.782C79.1906 100.899 80.647 100.047 82.1074 99.1934L82.1092 99.1924C83.5679 98.3396 85.0306 97.4844 86.4939 96.5972L86.4946 96.5967C87.6162 95.914 88.6292 95.5 89.5194 95.5C90.3596 95.5 91.1664 95.8697 91.9128 96.954C92.3537 97.6287 92.5529 98.2048 92.5955 98.6981C92.6378 99.1871 92.5292 99.6263 92.3026 100.038C91.8345 100.888 90.8638 101.621 89.6663 102.312L89.6663 102.312L89.6605 102.315C85.4066 104.845 81.1528 107.406 76.9005 109.966L76.9002 109.967C72.6473 112.527 68.3958 115.087 64.1446 117.615L64.1436 117.616C63.0171 118.289 61.9868 119.061 60.4143 120.239C60.1754 120.418 59.924 120.607 59.6578 120.805L59.0572 121.254L59.7023 121.636L60.4434 122.075C69.5581 127.473 78.0843 132.523 86.6101 137.692L86.6101 137.692L86.6158 137.696C87.1649 138.019 87.8131 138.325 88.4563 138.63C88.6584 138.725 88.86 138.821 89.0579 138.916C89.9064 139.326 90.707 139.748 91.3341 140.248C91.9578 140.745 92.3679 141.286 92.5035 141.921C92.6385 142.554 92.5215 143.376 91.8936 144.478L91.8936 144.478L91.8908 144.483C91.2606 145.618 90.6118 146.157 90.0009 146.374C89.3899 146.59 88.7228 146.518 87.9851 146.234C87.2427 145.949 86.4786 145.468 85.7025 144.935C85.4934 144.792 85.2819 144.643 85.07 144.494C84.5165 144.105 83.961 143.715 83.4416 143.409L83.4389 143.407C71.8892 136.707 60.3403 129.881 48.9189 122.929L48.9127 122.925L48.9063 122.921C48.4952 122.687 48.0432 122.358 47.4736 121.917C47.256 121.749 47.0177 121.561 46.7589 121.357C46.5198 121.168 46.2632 120.966 45.9894 120.752Z" stroke="black"/>
<path d="M268.172 120.983L267.466 121.41C265.105 122.837 262.806 124.222 260.556 125.579C253.257 129.978 246.466 134.071 239.673 138.312L239.673 138.312C239.196 138.61 238.651 138.896 238.117 139.176C237.895 139.292 237.675 139.408 237.463 139.523C236.716 139.926 236.036 140.335 235.521 140.81C235.014 141.279 234.697 141.785 234.622 142.385C234.546 142.991 234.707 143.777 235.329 144.822C235.884 145.733 236.446 146.182 236.975 146.374C237.504 146.566 238.076 146.53 238.705 146.323C239.339 146.115 239.997 145.745 240.671 145.314C240.935 145.146 241.212 144.962 241.489 144.776C241.888 144.51 242.288 144.243 242.656 144.021L242.659 144.019C246.789 141.569 250.907 139.064 255.03 136.557C262.14 132.233 269.263 127.901 276.478 123.827L276.483 123.824C277.784 123.106 278.62 122.506 279.101 121.989C279.574 121.482 279.647 121.122 279.585 120.836C279.513 120.503 279.227 120.105 278.625 119.609C278.035 119.123 277.22 118.604 276.218 118.005C276.218 118.005 276.217 118.005 276.217 118.004L276.474 117.575L268.172 120.983ZM268.172 120.983L267.467 120.554C263.403 118.088 259.533 115.758 255.788 113.503C249.949 109.987 244.414 106.655 238.922 103.273M268.172 120.983L238.922 103.273M238.922 103.273C238.618 103.079 238.294 102.889 237.973 102.7C237.955 102.689 237.937 102.678 237.918 102.667C237.612 102.487 237.309 102.308 237.012 102.124C236.38 101.73 235.814 101.327 235.389 100.878C234.969 100.433 234.708 99.9649 234.646 99.4341C234.584 98.9026 234.713 98.2387 235.207 97.3891C235.767 96.4383 236.332 95.9364 236.867 95.6961C237.395 95.4582 237.956 95.4489 238.566 95.6027C239.186 95.7589 239.835 96.0776 240.512 96.4694C240.849 96.6641 241.185 96.872 241.525 97.0822L241.525 97.0826C241.861 97.2905 242.201 97.501 242.537 97.6943L238.922 103.273Z" stroke="black"/>
<path d="M166.911 189.609L166.909 189.61C165.823 190.257 164.902 190.525 164.008 190.498C163.109 190.471 162.179 190.143 161.078 189.487C152.923 184.576 144.7 179.792 136.463 175.001C133.292 173.156 130.12 171.311 126.948 169.456C125.792 168.768 124.711 168.073 124.1 167.241C123.803 166.838 123.631 166.42 123.607 165.966C123.584 165.512 123.707 164.973 124.082 164.327L124.082 164.327L124.087 164.318C124.498 163.573 124.948 163.114 125.405 162.845C125.86 162.578 126.354 162.477 126.891 162.504C127.995 162.559 129.233 163.148 130.501 163.889L130.501 163.889L130.505 163.891C132.152 164.837 133.803 165.778 135.453 166.719C143.09 171.075 150.721 175.426 158.01 180.196L158.014 180.199C160.291 181.657 162.324 182.322 164.358 182.256C166.384 182.19 168.343 181.4 170.473 180.079L170.476 180.077C177.528 175.624 184.812 171.477 192.096 167.328C194.104 166.185 196.112 165.041 198.115 163.891L198.119 163.889C199.689 162.971 201.052 162.493 202.128 162.639C203.113 162.773 204.002 163.458 204.601 165.278C204.643 166.413 204.308 167.165 203.8 167.751C203.259 168.375 202.509 168.83 201.67 169.333C195.9 172.732 190.098 176.1 184.294 179.469L184.294 179.469C178.49 182.838 172.685 186.208 166.911 189.609Z" stroke="black"/>
<path d="M164.452 58.88L164.221 58.7534L163.986 58.8729L163.974 58.8789C162.464 59.646 160.927 60.427 159.513 61.3405C154.827 64.1719 150.141 67.0352 145.456 69.8978L145.454 69.8987C140.766 72.7632 136.08 75.6268 131.393 78.4582L131.392 78.4593C131.202 78.5749 131.013 78.692 130.826 78.8087C130.37 79.092 129.916 79.3735 129.454 79.6294C128.805 79.9886 128.179 80.2728 127.581 80.4104C126.989 80.5463 126.441 80.5353 125.926 80.3243C125.41 80.1128 124.872 79.6782 124.343 78.871C123.778 77.9948 123.588 77.298 123.606 76.7355C123.623 76.1789 123.846 75.691 124.228 75.2315C124.617 74.7647 125.159 74.3421 125.784 73.9314C126.196 73.6602 126.621 73.4091 127.048 73.156C127.275 73.0215 127.503 72.8866 127.731 72.7477C130.662 70.9606 133.604 69.1733 136.549 67.3831C144.422 62.5988 152.328 57.7944 160.165 52.9225C161.537 52.0995 162.69 51.6014 163.839 51.5139C164.972 51.4275 166.164 51.7367 167.619 52.6604L167.62 52.6612C176.014 57.9551 184.556 63.1005 193.128 68.2639C195.817 69.8835 198.508 71.5049 201.199 73.1333C202.36 73.8536 203.44 74.5452 204.069 75.3877C204.374 75.7959 204.559 76.2233 204.597 76.6941C204.635 77.165 204.531 77.7229 204.185 78.3975C203.772 79.1747 203.321 79.6533 202.865 79.9352C202.412 80.2152 201.919 80.3224 201.385 80.3015C200.286 80.2585 199.054 79.678 197.784 78.9685C192.974 76.0746 188.195 73.1806 183.416 70.2861L183.412 70.2839L183.411 70.2832C178.633 67.3893 173.854 64.4949 169.043 61.6005C167.505 60.5598 166.095 59.779 164.452 58.88Z" stroke="black"/>
<path d="M113.104 86.3796C113.104 89.0774 111.882 90.831 109.927 90.9659C107.849 91.2357 106.382 89.8867 106.138 87.5936C105.893 85.0307 106.993 83.1422 109.438 83.0073C111.638 82.8724 112.493 84.626 113.104 86.3796Z" fill="#323232"/>
<path d="M221.096 155.887C220.735 157.563 219.772 159 217.724 159C215.436 159 213.991 157.563 214.111 155.288C214.232 153.133 215.797 151.696 218.086 152.055C220.012 152.294 221.217 153.612 221.096 155.887Z" fill="#323232"/>
<path d="M225.104 88.495C224.965 90.4233 223.987 91.8695 221.332 91.99C218.816 92.1105 217.279 91.1464 217.14 88.977C216.86 86.5667 218.257 85.1205 221.052 85C223.567 85 224.825 86.3257 225.104 88.495Z" fill="#323232"/>
<path d="M106.973 157C104.228 156.76 103.104 155.437 103.104 153.513C103.229 151.228 104.477 149.786 107.098 150.026C109.344 150.267 110.218 151.709 110.093 153.754C109.968 156.038 108.471 156.88 106.973 157Z" fill="#323232"/>
<defs>
<linearGradient id="paint0_linear_514_465" x1="163.604" y1="134.865" x2="163.604" y2="306" gradientUnits="userSpaceOnUse">
<stop stop-color="#FFC485"/>
<stop offset="1" stop-color="#F79124"/>
</linearGradient>
</defs>
</svg>
