<svg width="1447" height="362" viewBox="0 0 1447 362" fill="none" xmlns="http://www.w3.org/2000/svg">
<path d="M302.005 157.588C301.905 160.888 302.905 161.988 306.205 161.888C311.705 161.588 317.205 161.588 322.705 161.888M302.005 157.588L323.705 95.2878C326.205 96.6878 327.105 98.3878 327.105 101.288C327.005 119.988 327.005 138.588 327.105 157.288M302.005 157.588C302.119 149.588 302.103 141.588 302.086 133.588C302.074 127.588 302.062 121.588 302.105 115.588L302.005 157.588ZM322.705 161.888C326.405 162.088 327.105 160.588 327.105 157.288M322.705 161.888L322.732 161.389M322.705 161.888L322.732 161.389C322.732 161.389 322.732 161.389 322.732 161.389M327.105 157.288L326.605 157.29M327.105 157.288H326.605C326.605 157.289 326.605 157.29 326.605 157.29M322.732 161.389C317.216 161.088 311.7 161.088 306.184 161.388C304.561 161.437 303.682 161.177 303.19 160.666C302.692 160.149 302.455 159.236 302.505 157.603L302.505 157.595C302.619 149.595 302.603 141.584 302.586 133.577C302.574 127.577 302.562 121.579 302.605 115.591V115.588C302.605 113.986 302.346 112.69 301.713 111.589C301.08 110.488 300.102 109.633 298.759 108.857C255.06 82.6579 211.462 56.459 167.864 30.0601L167.862 30.059C166.316 29.1313 164.947 28.6604 163.545 28.6879C162.147 28.7153 160.784 29.2372 159.247 30.159L159.246 30.16C115.948 56.3586 72.5502 82.3574 29.1512 108.357C27.4627 109.329 26.2575 110.358 25.485 111.686C24.7117 113.016 24.4047 114.589 24.4047 116.588H24.4045L24.4048 116.599C24.5686 124.079 24.5536 131.501 24.5385 138.933C24.526 145.132 24.5134 151.339 24.6047 157.591C24.6043 159.234 24.3698 160.146 23.8819 160.654C23.408 161.146 22.5615 161.387 20.9349 161.289L20.9349 161.289L20.9239 161.288C15.719 161.088 10.6 160.987 5.37586 161.289L5.36727 161.289C3.38567 161.438 2.20421 161.193 1.50718 160.546C0.81351 159.903 0.455637 158.726 0.504415 156.604C0.804812 149.541 0.767137 142.53 0.72961 135.548C0.717127 133.225 0.70466 130.905 0.70466 128.588C0.70466 126.023 0.72096 123.456 0.737271 120.887C0.778107 114.455 0.819016 108.011 0.604408 101.572C0.556493 99.9875 0.821379 98.8392 1.38431 97.8935C1.95097 96.9415 2.84983 96.1433 4.16647 95.3138C48.5647 68.7149 92.964 42.1153 137.263 15.3156L137.005 14.8878L137.264 15.3155C138.915 14.3161 140.565 13.3123 142.217 12.3083C148.17 8.6878 154.13 5.06337 160.153 1.62191C161.508 0.847459 162.644 0.488992 163.737 0.500258C164.828 0.511501 165.937 0.891767 167.238 1.7109L167.238 1.71098L167.246 1.71584C198.648 20.6713 230.05 39.5758 261.488 58.502C274.001 66.0351 286.52 73.5715 299.047 81.1161L299.048 81.1169C307.147 86.0162 315.249 90.9176 323.452 95.7194L323.46 95.724C324.657 96.394 325.426 97.1106 325.906 97.9691C326.387 98.8303 326.604 99.8856 326.605 101.285C326.505 119.987 326.505 138.589 326.605 157.29M322.732 161.389C324.54 161.486 325.429 161.154 325.909 160.58C326.418 159.97 326.604 158.945 326.605 157.29" fill="#323232" stroke="#323232"/>
<path d="M322.35 266.258L322.355 266.254C323.97 265.325 325.065 264.401 325.753 263.277C326.438 262.159 326.753 260.788 326.705 258.901C326.49 252.602 326.531 246.247 326.572 239.926C326.588 237.406 326.605 234.891 326.605 232.388C326.605 229.229 326.593 226.068 326.582 222.902C326.56 216.555 326.538 210.19 326.605 203.783L326.605 203.772C326.654 202.184 326.441 201.242 325.947 200.7C325.469 200.175 324.597 199.889 322.934 199.987C317.923 200.288 312.899 200.389 307.868 199.986C305.679 199.838 304.376 200.085 303.606 200.793C302.84 201.497 302.455 202.794 302.504 205.173C302.759 213.771 302.73 222.378 302.701 230.975C302.685 235.883 302.668 240.787 302.705 245.684V245.688C302.705 247.124 302.526 248.339 301.988 249.401C301.446 250.471 300.567 251.333 299.262 252.117L299.262 252.117C255.362 278.416 211.464 304.715 167.666 331.214C166.33 332.036 165.093 332.534 163.821 332.575C162.54 332.617 161.291 332.195 159.934 331.308C152.741 326.774 145.487 322.423 138.215 318.061C136.193 316.848 134.171 315.635 132.147 314.417L322.35 266.258ZM322.35 266.258C305.622 276.165 288.959 286.203 272.258 296.266C268.39 298.596 264.52 300.928 260.647 303.259C252.067 308.424 243.487 313.581 234.91 318.736C212.595 332.148 190.294 345.552 168.045 359.06C166.34 360.083 164.959 360.536 163.626 360.513C162.29 360.49 160.929 359.989 159.267 358.962L159.263 358.96C107.662 327.859 55.9616 296.859 4.36145 265.959L4.35947 265.958C3.04137 265.177 2.11909 264.402 1.5297 263.45C0.944882 262.505 0.656362 261.334 0.70435 259.703L0.704435 259.703L0.704536 259.693C0.904575 241.39 0.904587 223.085 0.604511 204.68L0.604431 204.676C0.554831 202.543 0.89063 201.368 1.57225 200.727C2.25501 200.084 3.43185 199.838 5.46808 199.987L5.46807 199.987L5.4752 199.987C10.5949 200.288 15.8144 200.288 21.0334 199.987L21.0348 199.987C22.6496 199.889 23.5288 200.15 24.032 200.672C24.5484 201.208 24.8042 202.153 24.8046 203.784C24.7046 210.687 24.7046 217.589 24.7046 224.499V224.5C24.7046 231.413 24.7046 238.335 24.6046 245.281H24.6046V245.288C24.6046 246.931 24.8348 248.298 25.4637 249.474C26.0949 250.654 27.0994 251.589 28.5526 252.42C63.1495 273.018 97.6465 293.716 132.144 314.415L132.147 314.416L322.35 266.258Z" fill="#323232" stroke="#323232"/>
<path d="M40.1045 203.683C40.1045 195.427 40.1045 147.922 40.1045 139.665C40.1045 133.896 40.7846 133.557 46.339 136.837C70.2569 151.089 94.2881 165.453 118.206 179.705C131.695 187.735 145.184 195.653 158.447 203.91C162.641 206.511 165.702 206.172 169.669 203.684C206.283 181.628 243.123 159.685 279.85 137.629C280.983 136.95 282.117 136.272 283.25 135.706C285.858 134.236 287.104 134.914 287.104 137.968C287.104 155.613 287.104 212.506 287.104 230.151C287.104 232.073 286.538 233.657 284.611 234.788C245.617 258.088 206.623 281.275 167.629 304.689C164.341 306.611 162.074 306.046 159.014 304.236C128.861 286.026 98.4822 268.155 68.3298 249.944C59.9416 244.968 51.8934 239.539 43.1651 235.127C40.6713 233.883 40.2178 231.508 40.2178 228.906C40.2178 220.65 40.1045 212.167 40.1045 203.683Z" fill="url(#paint0_linear_514_506)"/>
<path d="M239.104 120.67C238.343 122.827 236.311 123.335 234.66 124.35C212.565 137.677 190.47 150.751 168.374 164.205C164.819 166.362 162.152 166.489 158.597 164.331C135.993 150.624 113.39 137.17 90.787 123.589C89.7712 122.954 88.7553 122.193 87.1045 120.924C98.4061 114.07 109.2 107.597 119.993 101.123C133.073 93.2541 146.152 85.5118 159.104 77.5155C161.771 75.8655 164.057 75.104 167.104 77.0079C190.343 91.2233 213.708 105.185 237.073 119.147C237.962 119.527 238.47 120.162 239.104 120.67Z" fill="#323232"/>
<path d="M45.9894 120.64C56.9282 114.078 67.2683 107.875 77.7305 101.672L77.7347 101.669C79.1906 100.786 80.647 99.935 82.1074 99.0811L82.1092 99.0801C83.5679 98.2273 85.0306 97.3721 86.4939 96.4849L86.4946 96.4844C87.6162 95.8017 88.6292 95.3877 89.5194 95.3877C90.3596 95.3877 91.1664 95.7574 91.9128 96.8417C92.3537 97.5164 92.5529 98.0925 92.5955 98.5858C92.6378 99.0748 92.5292 99.514 92.3026 99.9257C91.8345 100.776 90.8638 101.509 89.6663 102.199L89.6663 102.199L89.6605 102.203C85.4066 104.732 81.1528 107.294 76.9005 109.854L76.9002 109.854C72.6473 112.415 68.3958 114.975 64.1446 117.503L64.1436 117.503C63.0171 118.177 61.9868 118.949 60.4143 120.127C60.1754 120.306 59.924 120.494 59.6578 120.693L59.0572 121.142L59.7023 121.524L60.4434 121.963C69.5581 127.361 78.0843 132.411 86.6101 137.58L86.6101 137.58L86.6158 137.583C87.1649 137.907 87.8131 138.213 88.4563 138.517C88.6584 138.613 88.86 138.708 89.0579 138.804C89.9064 139.214 90.707 139.636 91.3341 140.136C91.9578 140.633 92.3679 141.173 92.5035 141.809C92.6385 142.442 92.5215 143.263 91.8936 144.365L91.8936 144.365L91.8908 144.37C91.2606 145.506 90.6118 146.045 90.0009 146.261C89.3899 146.478 88.7228 146.406 87.9851 146.122C87.2427 145.836 86.4786 145.356 85.7025 144.823C85.4934 144.679 85.2819 144.531 85.07 144.382C84.5165 143.993 83.961 143.602 83.4416 143.297L83.4389 143.295C71.8892 136.595 60.3403 129.769 48.9189 122.816L48.9127 122.812L48.9063 122.809C48.4952 122.575 48.0432 122.246 47.4736 121.805C47.256 121.636 47.0177 121.448 46.7589 121.245C46.5198 121.056 46.2632 120.854 45.9894 120.64Z" stroke="black"/>
<path d="M268.172 120.87L267.466 121.297C265.105 122.725 262.806 124.11 260.556 125.466C253.257 129.865 246.466 133.959 239.673 138.2L239.673 138.2C239.196 138.497 238.651 138.783 238.117 139.064C237.895 139.18 237.675 139.295 237.463 139.41C236.716 139.814 236.036 140.223 235.521 140.698C235.014 141.167 234.697 141.673 234.622 142.273C234.546 142.879 234.707 143.665 235.329 144.709C235.884 145.621 236.446 146.069 236.975 146.262C237.504 146.454 238.076 146.418 238.705 146.211C239.339 146.003 239.997 145.633 240.671 145.202C240.935 145.034 241.212 144.849 241.489 144.664C241.888 144.398 242.288 144.131 242.656 143.908L242.659 143.906C246.789 141.456 250.907 138.952 255.03 136.445C262.14 132.121 269.263 127.789 276.478 123.714L276.483 123.712C277.784 122.994 278.62 122.394 279.101 121.877C279.574 121.37 279.647 121.009 279.585 120.723C279.513 120.39 279.227 119.993 278.625 119.497C278.035 119.011 277.22 118.492 276.218 117.893C276.218 117.892 276.217 117.892 276.217 117.892L276.474 117.463L268.172 120.87ZM268.172 120.87L267.467 120.442C263.403 117.976 259.533 115.646 255.788 113.391C249.949 109.875 244.414 106.542 238.922 103.161M268.172 120.87L238.922 103.161M238.922 103.161C238.618 102.967 238.294 102.776 237.973 102.587C237.955 102.577 237.937 102.566 237.918 102.555C237.612 102.375 237.309 102.196 237.012 102.011C236.38 101.617 235.814 101.215 235.389 100.765C234.969 100.321 234.708 99.8526 234.646 99.3218C234.584 98.7903 234.713 98.1264 235.207 97.2768C235.767 96.326 236.332 95.8241 236.867 95.5838C237.395 95.3459 237.956 95.3366 238.566 95.4904C239.186 95.6466 239.835 95.9653 240.512 96.357C240.849 96.5518 241.185 96.7597 241.525 96.9699L241.525 96.9703C241.861 97.1782 242.201 97.3887 242.537 97.582L238.922 103.161Z" stroke="black"/>
<path d="M166.911 189.497L166.909 189.498C165.823 190.145 164.902 190.413 164.008 190.386C163.109 190.358 162.179 190.03 161.078 189.375C152.923 184.463 144.7 179.68 136.463 174.888C133.292 173.044 130.12 171.198 126.948 169.344C125.792 168.655 124.711 167.961 124.1 167.129C123.803 166.726 123.631 166.308 123.607 165.854C123.584 165.399 123.707 164.861 124.082 164.214L124.082 164.214L124.087 164.205C124.498 163.461 124.948 163.002 125.405 162.733C125.86 162.465 126.354 162.365 126.891 162.392C127.995 162.447 129.233 163.036 130.501 163.777L130.501 163.777L130.505 163.779C132.152 164.725 133.803 165.666 135.453 166.607C143.09 170.962 150.721 175.314 158.01 180.084L158.014 180.087C160.291 181.544 162.324 182.209 164.358 182.143C166.384 182.078 168.343 181.288 170.473 179.967L170.476 179.965C177.528 175.512 184.812 171.364 192.096 167.216C194.104 166.072 196.112 164.929 198.115 163.779L198.119 163.777C199.689 162.859 201.052 162.381 202.128 162.527C203.113 162.661 204.002 163.345 204.601 165.166C204.643 166.3 204.308 167.053 203.8 167.639C203.259 168.263 202.509 168.718 201.67 169.221C195.9 172.62 190.098 175.988 184.294 179.357L184.294 179.357C178.49 182.726 172.685 186.096 166.911 189.497Z" stroke="black"/>
<path d="M164.452 58.7677L164.221 58.6411L163.986 58.7606L163.974 58.7666C162.464 59.5337 160.927 60.3147 159.513 61.2282C154.827 64.0596 150.141 66.9229 145.456 69.7855L145.454 69.7864C140.766 72.6509 136.08 75.5145 131.393 78.3459L131.392 78.347C131.202 78.4626 131.013 78.5797 130.826 78.6964C130.37 78.9797 129.916 79.2612 129.454 79.5171C128.805 79.8763 128.179 80.1605 127.581 80.2981C126.989 80.434 126.441 80.423 125.926 80.212C125.41 80.0005 124.872 79.5659 124.343 78.7587C123.778 77.8825 123.588 77.1857 123.606 76.6232C123.623 76.0666 123.846 75.5787 124.228 75.1192C124.617 74.6524 125.159 74.2298 125.784 73.8191C126.196 73.5478 126.621 73.2968 127.048 73.0437C127.275 72.9092 127.503 72.7743 127.731 72.6354C130.662 70.8483 133.604 69.061 136.549 67.2708C144.422 62.4865 152.328 57.6821 160.165 52.8101C161.537 51.9872 162.69 51.4891 163.839 51.4016C164.972 51.3152 166.164 51.6244 167.619 52.5481L167.62 52.5489C176.014 57.8428 184.556 62.9882 193.128 68.1516C195.817 69.7712 198.508 71.3926 201.199 73.021C202.36 73.7413 203.44 74.4329 204.069 75.2754C204.374 75.6836 204.559 76.111 204.597 76.5818C204.635 77.0527 204.531 77.6106 204.185 78.2851C203.772 79.0624 203.321 79.541 202.865 79.8229C202.412 80.1029 201.919 80.21 201.385 80.1892C200.286 80.1462 199.054 79.5656 197.784 78.8562C192.974 75.9623 188.195 73.0683 183.416 70.1738L183.412 70.1716L183.411 70.1709C178.633 67.277 173.854 64.3826 169.043 61.4882C167.505 60.4475 166.095 59.6666 164.452 58.7677Z" stroke="black"/>
<path d="M113.104 86.2673C113.104 88.9651 111.882 90.7187 109.927 90.8536C107.849 91.1234 106.382 89.7744 106.138 87.4813C105.893 84.9184 106.993 83.0299 109.438 82.895C111.638 82.7601 112.493 84.5137 113.104 86.2673Z" fill="#323232"/>
<path d="M221.096 155.774C220.735 157.451 219.772 158.888 217.724 158.888C215.436 158.888 213.991 157.451 214.111 155.176C214.232 153.02 215.797 151.583 218.086 151.943C220.012 152.182 221.217 153.499 221.096 155.774Z" fill="#323232"/>
<path d="M225.104 88.3827C224.965 90.311 223.987 91.7572 221.332 91.8777C218.816 91.9982 217.279 91.0341 217.14 88.8647C216.86 86.4544 218.257 85.0082 221.052 84.8877C223.567 84.8877 224.825 86.2134 225.104 88.3827Z" fill="#323232"/>
<path d="M106.973 156.888C104.228 156.647 103.104 155.325 103.104 153.401C103.229 151.116 104.477 149.673 107.098 149.914C109.344 150.154 110.218 151.597 110.093 153.641C109.968 155.926 108.471 156.767 106.973 156.888Z" fill="#323232"/>
<path d="M511.438 168.156V171.771C529.789 171.771 533.681 172.605 533.681 214.589C533.681 237.666 520.335 244.895 487.805 244.895C456.665 244.895 431.92 224.598 431.92 148.138C431.92 71.6776 456.109 51.3809 487.805 51.3809C520.892 51.3809 545.637 62.2244 549.807 108.657H555.646L558.149 63.6145C540.91 52.215 521.448 47.7664 487.805 47.7664C427.749 47.7664 396.053 92.8084 396.053 148.138C396.053 203.467 427.749 248.509 487.805 248.509C517.555 248.509 541.188 243.505 558.427 236.832C558.427 174.551 560.651 171.771 576.777 171.771V168.156H511.438ZM730.449 188.175C724.61 243.783 675.398 242.392 650.652 242.392H637.863V148.972H655.935C662.886 148.972 692.914 149.25 694.304 177.054H697.919V117.276H694.304C692.914 145.357 663.442 145.357 655.935 145.357H637.863V53.8832H652.877C675.398 53.8832 723.498 54.4393 726.834 100.315H730.449V50.2688H594.211V53.8832C606.444 53.8832 609.225 62.7804 609.225 80.0187V213.477C609.225 232.383 605.888 242.392 594.211 242.392V246.007H734.063V188.175H730.449ZM973.093 213.477V78.3505C973.093 59.444 982.546 53.8832 994.502 53.8832V50.2688H945.289L889.96 207.638L817.67 50.2688H762.341V53.8832C769.013 54.4393 782.915 54.1613 793.481 72.2337V176.776C793.481 208.194 788.476 242.392 753.999 242.392V246.007H832.684V242.392C801.822 242.392 797.095 209.028 797.095 176.776V78.3505L874.668 248.509H878.004L945.289 60.8342V213.477C945.289 235.998 936.948 242.392 925.27 242.392V246.007H996.448V242.392C984.492 242.392 973.093 235.998 973.093 213.477ZM1223.98 213.477V78.3505C1223.98 59.444 1233.43 53.8832 1245.39 53.8832V50.2688H1196.17L1140.84 207.638L1068.55 50.2688H1013.23V53.8832C1019.9 54.4393 1033.8 54.1613 1044.37 72.2337V176.776C1044.37 208.194 1039.36 242.392 1004.88 242.392V246.007H1083.57V242.392C1052.71 242.392 1047.98 209.028 1047.98 176.776V78.3505L1125.55 248.509H1128.89L1196.17 60.8342V213.477C1196.17 235.998 1187.83 242.392 1176.16 242.392V246.007H1247.33V242.392C1235.38 242.392 1223.98 235.998 1223.98 213.477ZM1301.65 183.17L1335.29 90.8622L1371.71 183.17H1301.65ZM1440.11 242.392C1432.32 241.836 1426.48 242.114 1417.31 219.871C1417.31 219.871 1382.83 132.012 1348.91 50.2688H1345.85L1299.42 176.776C1275.23 241.002 1268.28 242.114 1257.72 242.392V246.007H1319.72V242.392C1281.07 243.505 1293.3 209.028 1300.81 186.785H1372.82L1382.55 210.974C1388.95 226.544 1391.73 242.392 1376.72 242.392V246.007H1440.11V242.392Z" fill="black"/>
<defs>
<linearGradient id="paint0_linear_514_506" x1="163.604" y1="134.753" x2="163.604" y2="305.888" gradientUnits="userSpaceOnUse">
<stop stop-color="#FFC485"/>
<stop offset="1" stop-color="#F79124"/>
</linearGradient>
</defs>
</svg>
